<?xml version="1.0" standalone="no"?>
<!DOCTYPE svg PUBLIC "-//W3C//DTD SVG 20010904//EN"
 "http://www.w3.org/TR/2001/REC-SVG-20010904/DTD/svg10.dtd">
<svg version="1.0" xmlns="http://www.w3.org/2000/svg"
 width="260.000000pt" height="260.000000pt" viewBox="0 0 260.000000 260.000000"
 preserveAspectRatio="xMidYMid meet">
<metadata>
Created by potrace 1.11, written by Peter Selinger 2001-2013
</metadata>
<g transform="translate(0.000000,260.000000) scale(0.100000,-0.100000)"
fill="#000000" stroke="none">
<path d="M918 2474 c-2 -2 -22 -5 -43 -8 -22 -2 -40 -5 -40 -6 0 -1 -7 -3 -16
-5 -47 -9 -137 -39 -187 -62 -115 -54 -203 -123 -325 -254 -24 -27 -87 -126
-87 -138 0 -5 -4 -11 -8 -13 -14 -5 -71 -176 -86 -258 -14 -73 -15 -241 -1
-305 26 -127 76 -257 122 -322 13 -17 23 -34 23 -37 0 -15 184 -206 199 -206
4 0 16 -8 27 -17 62 -55 247 -134 344 -147 25 -3 56 -8 70 -11 76 -16 216 -5
339 26 66 17 237 91 251 108 3 4 18 15 33 24 35 22 58 42 105 87 47 45 142
164 142 178 0 6 3 12 7 14 11 4 59 104 78 162 30 92 45 188 46 285 0 122 -6
166 -38 271 -22 74 -86 215 -103 230 -4 3 -25 30 -47 60 -54 71 -93 110 -173
169 -55 40 -201 120 -235 128 -5 1 -44 12 -85 23 -52 15 -111 22 -192 24 -65
2 -119 2 -120 0z m204 -243 c43 -16 67 -77 48 -125 -14 -37 -58 -85 -109 -117
l-44 -28 -36 19 c-52 26 -118 95 -126 131 -9 42 2 99 20 99 8 0 15 4 15 9 0
25 173 35 232 12z m-569 -346 c37 -18 66 -59 92 -132 17 -48 17 -53 2 -77 -20
-30 -90 -79 -132 -92 -37 -12 -82 -5 -114 18 -32 22 -35 78 -11 160 39 125 85
161 163 123z m1031 -17 c58 -77 87 -219 52 -257 -39 -43 -127 -42 -189 2 -85
60 -86 63 -72 122 7 30 20 67 30 82 23 35 55 69 55 59 0 -4 6 -1 14 6 7 8 29
15 49 16 30 2 40 -3 61 -30z m-500 -230 c24 -26 27 -37 23 -70 -5 -41 -33 -82
-48 -72 -5 3 -9 0 -9 -6 0 -14 -77 -5 -97 12 -29 24 -42 68 -30 102 12 36 23
47 57 62 37 17 71 7 104 -28z m357 -389 c38 -26 62 -74 55 -105 -14 -54 -150
-155 -212 -157 -32 -1 -63 21 -83 60 -28 54 4 198 49 220 38 19 155 8 191 -18z
m-665 14 c20 -13 54 -82 60 -121 3 -20 8 -40 10 -44 2 -4 0 -9 -5 -13 -6 -3
-8 -12 -5 -20 8 -19 -37 -77 -54 -70 -7 2 -10 0 -7 -5 4 -6 -7 -10 -24 -10
-43 0 -124 44 -177 97 -42 41 -46 48 -41 81 7 42 47 86 89 98 41 12 140 16
154 7z"/>
<path d="M1791 2132 c-8 -15 -4 -30 15 -63 43 -76 86 -173 88 -196 0 -13 4
-23 7 -23 4 0 12 -20 19 -44 9 -34 26 -57 73 -98 33 -29 68 -60 77 -68 40 -36
110 -132 135 -186 43 -91 35 -216 -20 -325 -24 -46 -127 -203 -137 -207 -4 -2
-8 -12 -8 -23 0 -10 -3 -19 -8 -19 -12 0 -46 -83 -68 -169 -19 -72 -19 -207 0
-263 46 -136 138 -234 296 -315 46 -23 77 -28 95 -15 14 9 76 203 69 214 -3 4
-24 18 -47 30 -218 110 -229 259 -42 532 63 93 110 189 133 273 25 87 27 232
5 307 -46 159 -178 328 -386 495 -91 73 -256 181 -275 181 -6 0 -16 -8 -21
-18z"/>
</g>
</svg>
